<?xml version="1.0" encoding="UTF-8"?>
<!DOCTYPE svg PUBLIC "-//W3C//DTD SVG 1.1//EN" "http://www.w3.org/Graphics/SVG/1.1/DTD/svg11.dtd">
<!-- Creator: CorelDRAW X7 -->
<svg xmlns="http://www.w3.org/2000/svg" xml:space="preserve" width="55.3552mm" height="55.3552mm" version="1.1" style="shape-rendering:geometricPrecision; text-rendering:geometricPrecision; image-rendering:optimizeQuality; fill-rule:evenodd; clip-rule:evenodd"
viewBox="0 0 4273 4273"
 xmlns:xlink="http://www.w3.org/1999/xlink">
 <defs>
  <style type="text/css">
   <![CDATA[
    .fil2 {fill:#FEFEFE}
    .fil1 {fill:url(#id2);fill-rule:nonzero}
    .fil0 {fill:url(#id3);fill-rule:nonzero}
   ]]>
  </style>
   <mask id="id0">
  <linearGradient id="id1" gradientUnits="userSpaceOnUse" x1="2897.75" y1="1185.9" x2="1375.55" y2="3087.39">
   <stop offset="0" style="stop-opacity:1; stop-color:white"/>
   <stop offset="1" style="stop-opacity:0.4; stop-color:white"/>
  </linearGradient>
    <rect style="fill:url(#id1)" x="160" y="160" width="3954" height="3954"/>
   </mask>
  <linearGradient id="id2" gradientUnits="userSpaceOnUse" x1="2989.31" y1="3224.61" x2="1283.98" y2="1048.68">
   <stop offset="0" style="stop-opacity:1; stop-color:#ED4096"/>
   <stop offset="0.568627" style="stop-opacity:1; stop-color:#FEFEFE"/>
   <stop offset="1" style="stop-opacity:1; stop-color:#F5ACCC"/>
  </linearGradient>
  <radialGradient id="id3" gradientUnits="userSpaceOnUse" gradientTransform="matrix(-1.12753 1.83347 -1.83346 -1.12752 7267 -3886)" cx="2863.11" cy="640.995" r="1666.58" fx="2863.11" fy="640.995">
   <stop offset="0" style="stop-opacity:1; stop-color:#F6DCEA"/>
   <stop offset="0.411765" style="stop-opacity:1; stop-color:#ED1988"/>
   <stop offset="1" style="stop-opacity:1; stop-color:#EC268F"/>
  </radialGradient>
 </defs>
 <g id="Capa_x0020_1">
  <metadata id="CorelCorpID_0Corel-Layer"/>
  <path class="fil0" d="M2137 4273c590,0 1124,-239 1510,-626 387,-386 626,-920 626,-1510 0,-590 -239,-1125 -626,-1511 -386,-387 -920,-626 -1510,-626 -590,0 -1125,239 -1511,626 -387,386 -626,921 -626,1511 0,590 239,1124 626,1510 386,387 921,626 1511,626z"/>
  <path class="fil1" style="mask:url(#id0)" d="M2137 4106c543,0 1036,-221 1392,-577 356,-356 577,-849 577,-1392 0,-544 -221,-1036 -577,-1393 -356,-356 -849,-577 -1392,-577 -544,0 -1036,221 -1393,577 -356,357 -577,849 -577,1393 0,9 1,17 1,26 7,-518 220,-987 561,-1328 346,-347 825,-561 1355,-561 529,0 1008,214 1354,561 347,347 562,826 562,1355 0,529 -215,1008 -562,1355 -341,341 -809,554 -1328,561 9,0 18,0 27,0z"/>
  <path class="fil2" d="M2120 2597c402,0 729,-327 729,-730 0,-152 -47,-294 -128,-412l139 -256c159,177 257,411 257,668 0,551 -821,1881 -997,1881 -177,0 -997,-1330 -997,-1881 0,-256 97,-490 256,-667l141 253c-82,118 -129,260 -129,414 0,403 326,730 729,730zm275 -1405c-85,-34 -178,-54 -275,-54 -97,0 -190,19 -274,54l-132 -236c124,-55 261,-86 406,-86 143,0 280,31 403,85l-128 237zm657 -583c44,-9 88,19 97,63 9,44 -19,87 -63,97l-154 32 -344 639c-14,27 -42,43 -71,43l0 0 -790 0c-33,0 -62,-20 -75,-48l-343 -616c-22,-39 -8,-89 31,-111 40,-22 89,-8 111,32l323 579 694 0 338 -626c11,-22 31,-38 56,-43l190 -41zm-641 1384c103,0 186,-83 186,-186 0,-103 -83,-186 -186,-186 -103,0 -186,83 -186,186 0,103 83,186 186,186zm-588 0c103,0 186,-83 186,-186 0,-103 -83,-186 -186,-186 -103,0 -186,83 -186,186 0,103 83,186 186,186z"/>
 </g>
</svg>
