<?xml version="1.0" encoding="UTF-8"?>
<!DOCTYPE svg PUBLIC "-//W3C//DTD SVG 1.1//EN" "http://www.w3.org/Graphics/SVG/1.1/DTD/svg11.dtd">
<!-- Creator: CorelDRAW X7 -->
<svg xmlns="http://www.w3.org/2000/svg" xml:space="preserve" width="55.3552mm" height="55.3552mm" version="1.1" style="shape-rendering:geometricPrecision; text-rendering:geometricPrecision; image-rendering:optimizeQuality; fill-rule:evenodd; clip-rule:evenodd"
viewBox="0 0 855 855"
 xmlns:xlink="http://www.w3.org/1999/xlink">
 <defs>
  <style type="text/css">
   <![CDATA[
    .fil1 {fill:#FEFEFE}
    .fil2 {fill:url(#id2);fill-rule:nonzero}
    .fil0 {fill:url(#id3);fill-rule:nonzero}
   ]]>
  </style>
   <mask id="id0">
  <linearGradient id="id1" gradientUnits="userSpaceOnUse" x1="579.755" y1="237.265" x2="275.207" y2="617.697">
   <stop offset="0" style="stop-opacity:1; stop-color:white"/>
   <stop offset="1" style="stop-opacity:0.4; stop-color:white"/>
  </linearGradient>
    <rect style="fill:url(#id1)" x="32" y="32" width="791" height="791"/>
   </mask>
  <linearGradient id="id2" gradientUnits="userSpaceOnUse" x1="598.073" y1="645.149" x2="256.888" y2="209.811">
   <stop offset="0" style="stop-opacity:1; stop-color:#ED4096"/>
   <stop offset="0.568627" style="stop-opacity:1; stop-color:#FEFEFE"/>
   <stop offset="1" style="stop-opacity:1; stop-color:#F5ACCC"/>
  </linearGradient>
  <radialGradient id="id3" gradientUnits="userSpaceOnUse" gradientTransform="matrix(-1.12753 1.83347 -1.83346 -1.12752 1454 -777)" cx="572.825" cy="128.245" r="333.435" fx="572.825" fy="128.245">
   <stop offset="0" style="stop-opacity:1; stop-color:#F6DCEA"/>
   <stop offset="0.411765" style="stop-opacity:1; stop-color:#ED1988"/>
   <stop offset="1" style="stop-opacity:1; stop-color:#EC268F"/>
  </radialGradient>
 </defs>
 <g id="Capa_x0020_1">
  <metadata id="CorelCorpID_0Corel-Layer"/>
  <path class="fil0" d="M427 855c119,0 225,-48 303,-125 77,-78 125,-184 125,-303 0,-118 -48,-224 -125,-302 -78,-77 -184,-125 -303,-125 -118,0 -224,48 -302,125 -77,78 -125,184 -125,302 0,119 48,225 125,303 78,77 184,125 302,125z"/>
  <g id="_1074499776">
   <path class="fil1" d="M113 235l629 0c12,0 22,10 22,23l0 304c0,13 -10,23 -22,23l-629 0c-12,0 -22,-10 -22,-23l0 -304c0,-13 10,-23 22,-23zm18 22l593 0c10,0 18,8 18,18l0 244c0,10 -8,18 -18,18l-593 0c-10,0 -18,-8 -18,-18l0 -244c0,-10 8,-18 18,-18zm505 305l21 0c3,0 5,2 5,5l0 0c0,3 -2,5 -5,5l-21 0c-3,0 -5,-2 -5,-5l0 0c0,-3 2,-5 5,-5z"/>
   <ellipse class="fil1" cx="427" cy="618" rx="135" ry="7"/>
   <rect class="fil1" x="416" y="567" width="22.2233" height="41.2671"/>
  </g>
  <path class="fil2" style="mask:url(#id0)" d="M427 821c109,0 208,-44 279,-115 71,-71 115,-170 115,-279 0,-108 -44,-207 -115,-278 -71,-71 -170,-115 -279,-115 -108,0 -207,44 -278,115 -71,71 -115,170 -115,278 0,2 0,4 0,6 1,-104 44,-198 112,-266 69,-69 165,-112 271,-112 106,0 202,43 271,112 69,69 112,165 112,271 0,106 -43,202 -112,271 -68,68 -162,111 -266,112 2,0 4,0 5,0z"/>
 </g>
</svg>
