<?xml version="1.0" encoding="UTF-8"?>
<!DOCTYPE svg PUBLIC "-//W3C//DTD SVG 1.1//EN" "http://www.w3.org/Graphics/SVG/1.1/DTD/svg11.dtd">
<!-- Creator: CorelDRAW X7 -->
<svg xmlns="http://www.w3.org/2000/svg" xml:space="preserve" width="46.674mm" height="72.2734mm" version="1.1" style="shape-rendering:geometricPrecision; text-rendering:geometricPrecision; image-rendering:optimizeQuality; fill-rule:evenodd; clip-rule:evenodd"
viewBox="0 0 151 233"
 xmlns:xlink="http://www.w3.org/1999/xlink">
 <defs>
  <style type="text/css">
   <![CDATA[
    .fil0 {fill:white}
    .fil1 {fill:url(#id0)}
   ]]>
  </style>
  <linearGradient id="id0" gradientUnits="userSpaceOnUse" x1="24.1052" y1="116.645" x2="126.553" y2="116.645">
   <stop offset="0" style="stop-opacity:1; stop-color:#C82F90"/>
   <stop offset="1" style="stop-opacity:1; stop-color:#ED297C"/>
  </linearGradient>
 </defs>
 <g id="Capa_x0020_1">
  <metadata id="CorelCorpID_0Corel-Layer"/>
  <g id="_772750736">
   <g>
    <path class="fil0" d="M52 103c8,0 14,-6 14,-14 0,-7 -6,-14 -14,-14 -8,0 -14,7 -14,14 0,8 6,14 14,14z"/>
    <path class="fil0" d="M96 103c7,0 14,-6 14,-14 0,-7 -7,-14 -14,-14 -8,0 -14,7 -14,14 0,8 6,14 14,14z"/>
   </g>
   <path class="fil1" d="M74 148c30,0 54,-24 54,-54 0,-12 -3,-22 -9,-31l10 -19c12,13 19,31 19,50 0,41 -61,139 -74,139 -13,0 -74,-98 -74,-139 0,-19 7,-37 19,-50l11 19c-7,9 -10,19 -10,31 0,30 24,54 54,54zm69 -148c4,-1 7,2 8,5 0,3 -2,6 -5,7l-12 2 -25 48c-1,2 -3,3 -5,3l0 0 -59 0c-3,0 -5,-1 -6,-4l-25 -45c-2,-3 -1,-7 2,-8 3,-2 7,-1 8,2l24 43 52 0 25 -47c1,-1 2,-2 4,-3l14 -3zm-48 43c-7,-2 -14,-4 -21,-4 -7,0 -14,2 -20,4l-10 -17c9,-4 19,-6 30,-6 11,0 21,2 30,6l-9 17z"/>
  </g>
 </g>
</svg>
