<?xml version="1.0" encoding="UTF-8"?>
<!DOCTYPE svg PUBLIC "-//W3C//DTD SVG 1.1//EN" "http://www.w3.org/Graphics/SVG/1.1/DTD/svg11.dtd">
<!-- Creator: CorelDRAW X7 -->
<svg xmlns="http://www.w3.org/2000/svg" xml:space="preserve" width="55.3552mm" height="55.3552mm" version="1.1" style="shape-rendering:geometricPrecision; text-rendering:geometricPrecision; image-rendering:optimizeQuality; fill-rule:evenodd; clip-rule:evenodd"
viewBox="0 0 1423 1423"
 xmlns:xlink="http://www.w3.org/1999/xlink">
 <defs>
  <style type="text/css">
   <![CDATA[
    .fil2 {fill:#FEFEFE;fill-rule:nonzero}
    .fil1 {fill:url(#id2);fill-rule:nonzero}
    .fil0 {fill:url(#id3);fill-rule:nonzero}
   ]]>
  </style>
   <mask id="id0">
  <linearGradient id="id1" gradientUnits="userSpaceOnUse" x1="965.029" y1="394.938" x2="458.095" y2="1028.19">
   <stop offset="0" style="stop-opacity:1; stop-color:white"/>
   <stop offset="1" style="stop-opacity:0.4; stop-color:white"/>
  </linearGradient>
    <rect style="fill:url(#id1)" x="53" y="53" width="1317" height="1317"/>
   </mask>
  <linearGradient id="id2" gradientUnits="userSpaceOnUse" x1="995.519" y1="1073.88" x2="427.601" y2="349.24">
   <stop offset="0" style="stop-opacity:1; stop-color:#ED4096"/>
   <stop offset="0.568627" style="stop-opacity:1; stop-color:#FEFEFE"/>
   <stop offset="1" style="stop-opacity:1; stop-color:#F5ACCC"/>
  </linearGradient>
  <radialGradient id="id3" gradientUnits="userSpaceOnUse" gradientTransform="matrix(-1.12753 1.83347 -1.83346 -1.12752 2420 -1294)" cx="953.493" cy="213.469" r="555.017" fx="953.493" fy="213.469">
   <stop offset="0" style="stop-opacity:1; stop-color:#F6DCEA"/>
   <stop offset="0.411765" style="stop-opacity:1; stop-color:#ED1988"/>
   <stop offset="1" style="stop-opacity:1; stop-color:#EC268F"/>
  </radialGradient>
 </defs>
 <g id="Capa_x0020_1">
  <metadata id="CorelCorpID_0Corel-Layer"/>
  <path class="fil0" d="M712 1423c196,0 374,-80 503,-208 128,-129 208,-307 208,-503 0,-197 -80,-375 -208,-504 -129,-128 -307,-208 -503,-208 -197,0 -375,80 -504,208 -128,129 -208,307 -208,504 0,196 80,374 208,503 129,128 307,208 504,208z"/>
  <path class="fil1" style="mask:url(#id0)" d="M712 1367c181,0 345,-73 463,-192 119,-118 192,-282 192,-463 0,-182 -73,-345 -192,-464 -118,-119 -282,-192 -463,-192 -182,0 -345,73 -464,192 -119,119 -192,282 -192,464 0,3 0,5 0,8 2,-172 73,-328 187,-442 115,-115 275,-187 451,-187 176,0 336,72 451,187 116,116 187,275 187,451 0,176 -71,336 -187,451 -113,114 -270,185 -442,187 3,0 6,0 9,0z"/>
  <path class="fil2" d="M408 1099c-23,24 -61,24 -84,0 -24,-23 -24,-61 0,-84l691 -691c23,-24 61,-24 84,0 24,23 24,61 0,84l-691 691zm115 -576c15,-14 22,-34 22,-53 0,-19 -7,-38 -21,-53l-1 0c-14,-15 -33,-22 -53,-22 -19,0 -38,7 -53,22 -15,15 -22,34 -22,53 0,20 7,39 22,53 15,15 34,22 53,22 19,0 39,-7 53,-22zm142 -53c0,50 -19,100 -57,138 -38,38 -88,57 -138,57 -50,0 -99,-19 -137,-57l-1 0c-38,-38 -57,-88 -57,-138 0,-50 19,-100 57,-138 38,-38 88,-57 138,-57 50,0 100,19 138,57l0 0 0 1c38,38 57,88 57,137zm341 536c15,-15 22,-34 22,-53 0,-19 -7,-39 -22,-53l0 0c-14,-15 -34,-22 -53,-22 -19,0 -39,7 -53,22 -15,14 -22,34 -22,53 0,19 7,39 22,53 14,15 34,22 53,22 19,0 38,-7 53,-22zm142 -53c0,50 -19,100 -57,138 -38,38 -88,57 -138,57 -50,0 -100,-19 -138,-57l0 0c-38,-39 -57,-88 -57,-138 0,-50 19,-100 57,-138 38,-38 88,-57 138,-57 50,0 99,19 138,57l0 0 0 0c38,39 57,88 57,138z"/>
 </g>
</svg>
