<?xml version="1.0" encoding="UTF-8"?>
<!DOCTYPE svg PUBLIC "-//W3C//DTD SVG 1.1//EN" "http://www.w3.org/Graphics/SVG/1.1/DTD/svg11.dtd">
<!-- Creator: CorelDRAW X7 -->
<svg xmlns="http://www.w3.org/2000/svg" xml:space="preserve" width="55.3552mm" height="55.3552mm" version="1.1" style="shape-rendering:geometricPrecision; text-rendering:geometricPrecision; image-rendering:optimizeQuality; fill-rule:evenodd; clip-rule:evenodd"
viewBox="0 0 4293 4293"
 xmlns:xlink="http://www.w3.org/1999/xlink">
 <defs>
  <style type="text/css">
   <![CDATA[
    .fil2 {fill:#FEFEFE;fill-rule:nonzero}
    .fil1 {fill:url(#id2);fill-rule:nonzero}
    .fil0 {fill:url(#id3);fill-rule:nonzero}
   ]]>
  </style>
   <mask id="id0">
  <linearGradient id="id1" gradientUnits="userSpaceOnUse" x1="2910.93" y1="1191.3" x2="1381.81" y2="3101.44">
   <stop offset="0" style="stop-opacity:1; stop-color:white"/>
   <stop offset="1" style="stop-opacity:0.4; stop-color:white"/>
  </linearGradient>
    <rect style="fill:url(#id1)" x="161" y="161" width="3972" height="3972"/>
   </mask>
  <linearGradient id="id2" gradientUnits="userSpaceOnUse" x1="3002.9" y1="3239.27" x2="1289.82" y2="1053.46">
   <stop offset="0" style="stop-opacity:1; stop-color:#ED4096"/>
   <stop offset="0.568627" style="stop-opacity:1; stop-color:#FEFEFE"/>
   <stop offset="1" style="stop-opacity:1; stop-color:#F5ACCC"/>
  </linearGradient>
  <radialGradient id="id3" gradientUnits="userSpaceOnUse" gradientTransform="matrix(-1.12753 1.83347 -1.83346 -1.12752 7300 -3903)" cx="2876.13" cy="643.912" r="1674.17" fx="2876.13" fy="643.912">
   <stop offset="0" style="stop-opacity:1; stop-color:#F6DCEA"/>
   <stop offset="0.411765" style="stop-opacity:1; stop-color:#ED1988"/>
   <stop offset="1" style="stop-opacity:1; stop-color:#EC268F"/>
  </radialGradient>
 </defs>
 <g id="Capa_x0020_1">
  <metadata id="CorelCorpID_0Corel-Layer"/>
  <path class="fil0" d="M2146 4293c593,0 1130,-241 1518,-629 388,-388 629,-925 629,-1518 0,-592 -241,-1129 -629,-1517 -388,-389 -925,-629 -1518,-629 -592,0 -1129,240 -1517,629 -389,388 -629,925 -629,1517 0,593 240,1130 629,1518 388,388 925,629 1517,629z"/>
  <path class="fil1" style="mask:url(#id0)" d="M2146 4124c547,0 1041,-221 1399,-579 358,-358 579,-852 579,-1399 0,-546 -221,-1040 -579,-1398 -358,-358 -852,-580 -1399,-580 -546,0 -1040,222 -1398,580 -358,358 -580,852 -580,1398 0,9 0,18 0,27 7,-521 222,-992 564,-1334 348,-349 830,-564 1361,-564 532,0 1013,215 1361,564 348,348 564,829 564,1361 0,531 -216,1012 -564,1361 -342,342 -813,556 -1334,563 8,0 17,0 26,0z"/>
  <path class="fil2" d="M450 2031c-58,28 -127,4 -155,-54 -28,-58 -4,-127 54,-155l1747 -849 50 -24 51 24 545 265 0 -245c0,-33 27,-59 59,-59l203 0c32,0 58,26 58,59l0 399 0 2 882 428c57,28 82,97 54,155 -28,58 -97,82 -155,54l-1697 -825 -1696 825zm464 1328l895 0 0 -379c0,-185 152,-337 337,-337l0 0c186,0 338,152 338,337l0 379 894 0 0 -1361 -1234 -601 -1230 601 0 1361z"/>
 </g>
</svg>
